<mxfile host="app.diagrams.net" modified="2024-07-28T02:12:01.149Z" agent="Mozilla/5.0 (Macintosh; Intel Mac OS X 10_15_7) AppleWebKit/537.36 (KHTML, like Gecko) Chrome/126.0.0.0 Safari/537.36" etag="NSB89T5OdFjmKUhcAyEB" version="24.4.13" type="google">
  <diagram name="Page-1" id="2YBvvXClWsGukQMizWep">
    <mxGraphModel grid="1" page="1" gridSize="10" guides="1" tooltips="1" connect="1" arrows="1" fold="1" pageScale="1" pageWidth="850" pageHeight="1100" math="0" shadow="0">
      <root>
        <mxCell id="0" />
        <mxCell id="1" parent="0" />
        <mxCell id="wGyRM2ViBNDOAx5oA7uM-1" value="NYPL/Data" style="rounded=1;whiteSpace=wrap;html=1;fontSize=10;fillColor=#d5e8d4;strokeColor=#82b366;" vertex="1" parent="1">
          <mxGeometry x="490" y="70" width="120" height="60" as="geometry" />
        </mxCell>
        <mxCell id="wGyRM2ViBNDOAx5oA7uM-2" value="Dish.csv" style="rounded=1;whiteSpace=wrap;html=1;fontSize=10;fillColor=#fff2cc;strokeColor=#d6b656;" vertex="1" parent="1">
          <mxGeometry x="250" y="160" width="120" height="60" as="geometry" />
        </mxCell>
        <mxCell id="wGyRM2ViBNDOAx5oA7uM-3" value="Menu.csv" style="rounded=1;whiteSpace=wrap;html=1;fontSize=10;fillColor=#fff2cc;strokeColor=#d6b656;" vertex="1" parent="1">
          <mxGeometry x="410" y="160" width="120" height="60" as="geometry" />
        </mxCell>
        <mxCell id="wGyRM2ViBNDOAx5oA7uM-4" value="Menuitem.csv" style="rounded=1;whiteSpace=wrap;html=1;fontSize=10;fillColor=#fff2cc;strokeColor=#d6b656;" vertex="1" parent="1">
          <mxGeometry x="560" y="160" width="120" height="60" as="geometry" />
        </mxCell>
        <mxCell id="wGyRM2ViBNDOAx5oA7uM-5" value="MenuPage.csv" style="rounded=1;whiteSpace=wrap;html=1;fontSize=10;fillColor=#fff2cc;strokeColor=#d6b656;" vertex="1" parent="1">
          <mxGeometry x="720" y="160" width="120" height="60" as="geometry" />
        </mxCell>
        <mxCell id="wGyRM2ViBNDOAx5oA7uM-6" value="" style="endArrow=classic;html=1;rounded=1;exitX=0.5;exitY=1;exitDx=0;exitDy=0;fontSize=10;" edge="1" parent="1" source="wGyRM2ViBNDOAx5oA7uM-1">
          <mxGeometry width="50" height="50" relative="1" as="geometry">
            <mxPoint x="270" y="210" as="sourcePoint" />
            <mxPoint x="320" y="160" as="targetPoint" />
          </mxGeometry>
        </mxCell>
        <mxCell id="wGyRM2ViBNDOAx5oA7uM-7" value="" style="endArrow=classic;html=1;rounded=1;exitX=0.5;exitY=1;exitDx=0;exitDy=0;entryX=0.571;entryY=-0.017;entryDx=0;entryDy=0;entryPerimeter=0;fontSize=10;" edge="1" parent="1" source="wGyRM2ViBNDOAx5oA7uM-1" target="wGyRM2ViBNDOAx5oA7uM-5">
          <mxGeometry width="50" height="50" relative="1" as="geometry">
            <mxPoint x="610" y="125" as="sourcePoint" />
            <mxPoint x="660" y="75" as="targetPoint" />
          </mxGeometry>
        </mxCell>
        <mxCell id="wGyRM2ViBNDOAx5oA7uM-8" value="" style="endArrow=classic;html=1;rounded=1;entryX=0.5;entryY=0;entryDx=0;entryDy=0;exitX=0.5;exitY=1;exitDx=0;exitDy=0;fontSize=10;" edge="1" parent="1" source="wGyRM2ViBNDOAx5oA7uM-1" target="wGyRM2ViBNDOAx5oA7uM-3">
          <mxGeometry width="50" height="50" relative="1" as="geometry">
            <mxPoint x="500" y="320" as="sourcePoint" />
            <mxPoint x="550" y="270" as="targetPoint" />
          </mxGeometry>
        </mxCell>
        <mxCell id="wGyRM2ViBNDOAx5oA7uM-11" value="" style="endArrow=classic;html=1;rounded=1;entryX=0.5;entryY=0;entryDx=0;entryDy=0;exitX=0.5;exitY=1;exitDx=0;exitDy=0;fontSize=10;" edge="1" parent="1" source="wGyRM2ViBNDOAx5oA7uM-1" target="wGyRM2ViBNDOAx5oA7uM-4">
          <mxGeometry width="50" height="50" relative="1" as="geometry">
            <mxPoint x="520" y="150" as="sourcePoint" />
            <mxPoint x="570" y="270" as="targetPoint" />
          </mxGeometry>
        </mxCell>
        <mxCell id="wGyRM2ViBNDOAx5oA7uM-43" style="edgeStyle=orthogonalEdgeStyle;rounded=1;orthogonalLoop=1;jettySize=auto;html=1;exitX=0.5;exitY=1;exitDx=0;exitDy=0;entryX=0.5;entryY=0;entryDx=0;entryDy=0;fontSize=10;" edge="1" parent="1" source="wGyRM2ViBNDOAx5oA7uM-13" target="wGyRM2ViBNDOAx5oA7uM-23">
          <mxGeometry relative="1" as="geometry" />
        </mxCell>
        <mxCell id="wGyRM2ViBNDOAx5oA7uM-44" style="edgeStyle=orthogonalEdgeStyle;rounded=1;orthogonalLoop=1;jettySize=auto;html=1;entryX=0.5;entryY=0;entryDx=0;entryDy=0;fontSize=10;" edge="1" parent="1" source="wGyRM2ViBNDOAx5oA7uM-13" target="wGyRM2ViBNDOAx5oA7uM-24">
          <mxGeometry relative="1" as="geometry" />
        </mxCell>
        <mxCell id="wGyRM2ViBNDOAx5oA7uM-48" style="edgeStyle=orthogonalEdgeStyle;rounded=1;orthogonalLoop=1;jettySize=auto;html=1;entryX=0.5;entryY=0;entryDx=0;entryDy=0;fontSize=10;" edge="1" parent="1" source="wGyRM2ViBNDOAx5oA7uM-13" target="wGyRM2ViBNDOAx5oA7uM-25">
          <mxGeometry relative="1" as="geometry" />
        </mxCell>
        <mxCell id="wGyRM2ViBNDOAx5oA7uM-50" style="edgeStyle=orthogonalEdgeStyle;rounded=1;orthogonalLoop=1;jettySize=auto;html=1;exitX=0.503;exitY=1.034;exitDx=0;exitDy=0;exitPerimeter=0;fontSize=10;" edge="1" parent="1" source="wGyRM2ViBNDOAx5oA7uM-14" target="wGyRM2ViBNDOAx5oA7uM-26">
          <mxGeometry relative="1" as="geometry" />
        </mxCell>
        <mxCell id="wGyRM2ViBNDOAx5oA7uM-13" value="OpenRefine" style="swimlane;fontStyle=0;childLayout=stackLayout;horizontal=1;startSize=30;horizontalStack=0;resizeParent=1;resizeParentMax=0;resizeLast=0;collapsible=1;marginBottom=0;whiteSpace=wrap;html=1;rounded=1;points=[[0.25,0,0,0,0],[0.25,1,0,0,0],[0.5,0,0,0,0],[0.5,1,0,0,0],[0.75,0,0,0,0],[0.75,1,0,0,0]];fontSize=10;fillColor=#dae8fc;strokeColor=#6c8ebf;" vertex="1" parent="1">
          <mxGeometry x="410" y="300" width="280" height="60" as="geometry" />
        </mxCell>
        <mxCell id="wGyRM2ViBNDOAx5oA7uM-14" value="Data cleaning, profiling and transformation" style="text;strokeColor=none;fillColor=none;align=left;verticalAlign=middle;spacingLeft=4;spacingRight=4;overflow=hidden;points=[];portConstraint=eastwest;rotatable=0;whiteSpace=wrap;html=1;rounded=1;fontSize=10;" vertex="1" parent="wGyRM2ViBNDOAx5oA7uM-13">
          <mxGeometry y="30" width="280" height="30" as="geometry" />
        </mxCell>
        <mxCell id="wGyRM2ViBNDOAx5oA7uM-17" value="" style="edgeStyle=elbowEdgeStyle;elbow=vertical;endArrow=classic;html=1;curved=0;rounded=1;endSize=8;startSize=8;entryX=0.5;entryY=0;entryDx=0;entryDy=0;exitX=0.5;exitY=1;exitDx=0;exitDy=0;fontSize=10;" edge="1" parent="1" source="wGyRM2ViBNDOAx5oA7uM-2" target="wGyRM2ViBNDOAx5oA7uM-13">
          <mxGeometry width="50" height="50" relative="1" as="geometry">
            <mxPoint x="525" y="270" as="sourcePoint" />
            <mxPoint x="575" y="220" as="targetPoint" />
            <Array as="points">
              <mxPoint x="510" y="260" />
            </Array>
          </mxGeometry>
        </mxCell>
        <mxCell id="wGyRM2ViBNDOAx5oA7uM-19" value="" style="edgeStyle=elbowEdgeStyle;elbow=vertical;endArrow=classic;html=1;curved=0;rounded=1;endSize=8;startSize=8;exitX=0.5;exitY=1;exitDx=0;exitDy=0;entryX=0.5;entryY=0;entryDx=0;entryDy=0;fontSize=10;" edge="1" parent="1" source="wGyRM2ViBNDOAx5oA7uM-3" target="wGyRM2ViBNDOAx5oA7uM-13">
          <mxGeometry width="50" height="50" relative="1" as="geometry">
            <mxPoint x="640" y="250" as="sourcePoint" />
            <mxPoint x="550" y="290" as="targetPoint" />
            <Array as="points">
              <mxPoint x="500" y="260" />
            </Array>
          </mxGeometry>
        </mxCell>
        <mxCell id="wGyRM2ViBNDOAx5oA7uM-21" value="" style="edgeStyle=elbowEdgeStyle;elbow=vertical;endArrow=classic;html=1;curved=0;rounded=1;endSize=8;startSize=8;entryX=0.5;entryY=0;entryDx=0;entryDy=0;exitX=0.5;exitY=1;exitDx=0;exitDy=0;fontSize=10;" edge="1" parent="1" source="wGyRM2ViBNDOAx5oA7uM-4" target="wGyRM2ViBNDOAx5oA7uM-13">
          <mxGeometry width="50" height="50" relative="1" as="geometry">
            <mxPoint x="640" y="250" as="sourcePoint" />
            <mxPoint x="550" y="290" as="targetPoint" />
          </mxGeometry>
        </mxCell>
        <mxCell id="wGyRM2ViBNDOAx5oA7uM-22" value="" style="edgeStyle=elbowEdgeStyle;elbow=vertical;endArrow=classic;html=1;curved=0;rounded=1;endSize=8;startSize=8;entryX=0.5;entryY=0;entryDx=0;entryDy=0;exitX=0.5;exitY=1;exitDx=0;exitDy=0;fontSize=10;" edge="1" parent="1" source="wGyRM2ViBNDOAx5oA7uM-5" target="wGyRM2ViBNDOAx5oA7uM-13">
          <mxGeometry width="50" height="50" relative="1" as="geometry">
            <mxPoint x="640" y="250" as="sourcePoint" />
            <mxPoint x="690" y="200" as="targetPoint" />
          </mxGeometry>
        </mxCell>
        <mxCell id="wGyRM2ViBNDOAx5oA7uM-23" value="Dish_cleaning.csv" style="rounded=1;whiteSpace=wrap;html=1;fontSize=10;fillColor=#fff2cc;strokeColor=#d6b656;" vertex="1" parent="1">
          <mxGeometry x="250" y="400" width="120" height="60" as="geometry" />
        </mxCell>
        <mxCell id="wGyRM2ViBNDOAx5oA7uM-24" value="Menu_cleaning.csv" style="rounded=1;whiteSpace=wrap;html=1;fontSize=10;fillColor=#fff2cc;strokeColor=#d6b656;" vertex="1" parent="1">
          <mxGeometry x="410" y="400" width="120" height="60" as="geometry" />
        </mxCell>
        <mxCell id="wGyRM2ViBNDOAx5oA7uM-25" value="Menuitem_cleaning.csv" style="rounded=1;whiteSpace=wrap;html=1;fontSize=10;fillColor=#fff2cc;strokeColor=#d6b656;" vertex="1" parent="1">
          <mxGeometry x="560" y="400" width="120" height="60" as="geometry" />
        </mxCell>
        <mxCell id="wGyRM2ViBNDOAx5oA7uM-26" value="MenuPage_cleaning.csv" style="rounded=1;whiteSpace=wrap;html=1;fontSize=10;fillColor=#fff2cc;strokeColor=#d6b656;" vertex="1" parent="1">
          <mxGeometry x="720" y="400" width="120" height="60" as="geometry" />
        </mxCell>
        <mxCell id="wGyRM2ViBNDOAx5oA7uM-51" value="MySQL" style="swimlane;fontStyle=0;childLayout=stackLayout;horizontal=1;startSize=30;horizontalStack=0;resizeParent=1;resizeParentMax=0;resizeLast=0;collapsible=1;marginBottom=0;whiteSpace=wrap;html=1;rounded=1;points=[[0.25,0,0,0,0],[0.25,1,0,0,0],[0.5,0,0,0,0],[0.5,1,0,0,0],[0.75,0,0,0,0],[0.75,1,0,0,0]];fontSize=10;fillColor=#dae8fc;strokeColor=#6c8ebf;" vertex="1" parent="1">
          <mxGeometry x="410" y="540" width="280" height="80" as="geometry" />
        </mxCell>
        <mxCell id="wGyRM2ViBNDOAx5oA7uM-52" value="&lt;ol&gt;&lt;li&gt;IC-violation check&lt;/li&gt;&lt;li&gt;Derive final conclusions for our use case&lt;/li&gt;&lt;/ol&gt;" style="text;strokeColor=none;fillColor=none;align=left;verticalAlign=middle;spacingLeft=4;spacingRight=4;overflow=hidden;points=[];portConstraint=eastwest;rotatable=0;whiteSpace=wrap;html=1;rounded=1;fontSize=10;" vertex="1" parent="wGyRM2ViBNDOAx5oA7uM-51">
          <mxGeometry y="30" width="280" height="50" as="geometry" />
        </mxCell>
        <mxCell id="wGyRM2ViBNDOAx5oA7uM-53" value="" style="edgeStyle=elbowEdgeStyle;elbow=vertical;endArrow=classic;html=1;curved=0;rounded=1;endSize=8;startSize=8;entryX=0.5;entryY=0;entryDx=0;entryDy=0;exitX=0.5;exitY=1;exitDx=0;exitDy=0;fontSize=10;" edge="1" parent="1" target="wGyRM2ViBNDOAx5oA7uM-51">
          <mxGeometry width="50" height="50" relative="1" as="geometry">
            <mxPoint x="780" y="460" as="sourcePoint" />
            <mxPoint x="690" y="440" as="targetPoint" />
          </mxGeometry>
        </mxCell>
        <mxCell id="wGyRM2ViBNDOAx5oA7uM-54" value="" style="edgeStyle=elbowEdgeStyle;elbow=vertical;endArrow=classic;html=1;curved=0;rounded=1;endSize=8;startSize=8;entryX=0.5;entryY=0;entryDx=0;entryDy=0;exitX=0.5;exitY=1;exitDx=0;exitDy=0;fontSize=10;" edge="1" parent="1" target="wGyRM2ViBNDOAx5oA7uM-51">
          <mxGeometry width="50" height="50" relative="1" as="geometry">
            <mxPoint x="620" y="460" as="sourcePoint" />
            <mxPoint x="550" y="530" as="targetPoint" />
          </mxGeometry>
        </mxCell>
        <mxCell id="wGyRM2ViBNDOAx5oA7uM-55" value="" style="edgeStyle=elbowEdgeStyle;elbow=vertical;endArrow=classic;html=1;curved=0;rounded=1;endSize=8;startSize=8;exitX=0.5;exitY=1;exitDx=0;exitDy=0;entryX=0.5;entryY=0;entryDx=0;entryDy=0;fontSize=10;" edge="1" parent="1" target="wGyRM2ViBNDOAx5oA7uM-51">
          <mxGeometry width="50" height="50" relative="1" as="geometry">
            <mxPoint x="470" y="460" as="sourcePoint" />
            <mxPoint x="550" y="530" as="targetPoint" />
            <Array as="points">
              <mxPoint x="500" y="500" />
            </Array>
          </mxGeometry>
        </mxCell>
        <mxCell id="wGyRM2ViBNDOAx5oA7uM-56" value="" style="edgeStyle=elbowEdgeStyle;elbow=vertical;endArrow=classic;html=1;curved=0;rounded=1;endSize=8;startSize=8;entryX=0.5;entryY=0;entryDx=0;entryDy=0;exitX=0.5;exitY=1;exitDx=0;exitDy=0;fontSize=10;" edge="1" parent="1" target="wGyRM2ViBNDOAx5oA7uM-51">
          <mxGeometry width="50" height="50" relative="1" as="geometry">
            <mxPoint x="310" y="460" as="sourcePoint" />
            <mxPoint x="575" y="460" as="targetPoint" />
            <Array as="points">
              <mxPoint x="510" y="500" />
            </Array>
          </mxGeometry>
        </mxCell>
        <mxCell id="wGyRM2ViBNDOAx5oA7uM-57" style="edgeStyle=orthogonalEdgeStyle;rounded=1;orthogonalLoop=1;jettySize=auto;html=1;exitX=0.5;exitY=1;exitDx=0;exitDy=0;entryX=0.5;entryY=0;entryDx=0;entryDy=0;fontSize=10;" edge="1" parent="1" target="wGyRM2ViBNDOAx5oA7uM-61">
          <mxGeometry relative="1" as="geometry">
            <mxPoint x="550" y="660" as="sourcePoint" />
          </mxGeometry>
        </mxCell>
        <mxCell id="wGyRM2ViBNDOAx5oA7uM-58" style="edgeStyle=orthogonalEdgeStyle;rounded=1;orthogonalLoop=1;jettySize=auto;html=1;entryX=0.5;entryY=0;entryDx=0;entryDy=0;fontSize=10;" edge="1" parent="1" target="wGyRM2ViBNDOAx5oA7uM-62">
          <mxGeometry relative="1" as="geometry">
            <mxPoint x="550" y="660" as="sourcePoint" />
          </mxGeometry>
        </mxCell>
        <mxCell id="wGyRM2ViBNDOAx5oA7uM-59" style="edgeStyle=orthogonalEdgeStyle;rounded=1;orthogonalLoop=1;jettySize=auto;html=1;entryX=0.5;entryY=0;entryDx=0;entryDy=0;fontSize=10;" edge="1" parent="1" target="wGyRM2ViBNDOAx5oA7uM-63">
          <mxGeometry relative="1" as="geometry">
            <mxPoint x="550" y="660" as="sourcePoint" />
          </mxGeometry>
        </mxCell>
        <mxCell id="wGyRM2ViBNDOAx5oA7uM-60" style="edgeStyle=orthogonalEdgeStyle;rounded=0;orthogonalLoop=1;jettySize=auto;html=1;exitX=0.497;exitY=0.997;exitDx=0;exitDy=0;exitPerimeter=0;fontSize=10;curved=0;" edge="1" parent="1" source="wGyRM2ViBNDOAx5oA7uM-52" target="wGyRM2ViBNDOAx5oA7uM-64">
          <mxGeometry relative="1" as="geometry">
            <mxPoint x="551" y="661" as="sourcePoint" />
          </mxGeometry>
        </mxCell>
        <mxCell id="wGyRM2ViBNDOAx5oA7uM-61" value="Dish_clean.csv" style="rounded=1;whiteSpace=wrap;html=1;fontSize=10;fillColor=#fff2cc;strokeColor=#d6b656;" vertex="1" parent="1">
          <mxGeometry x="250" y="700" width="120" height="60" as="geometry" />
        </mxCell>
        <mxCell id="wGyRM2ViBNDOAx5oA7uM-62" value="Menu_clean.csv" style="rounded=1;whiteSpace=wrap;html=1;fontSize=10;fillColor=#fff2cc;strokeColor=#d6b656;" vertex="1" parent="1">
          <mxGeometry x="410" y="700" width="120" height="60" as="geometry" />
        </mxCell>
        <mxCell id="wGyRM2ViBNDOAx5oA7uM-63" value="Menuitem_clean.csv" style="rounded=1;whiteSpace=wrap;html=1;fontSize=10;fillColor=#fff2cc;strokeColor=#d6b656;" vertex="1" parent="1">
          <mxGeometry x="560" y="700" width="120" height="60" as="geometry" />
        </mxCell>
        <mxCell id="wGyRM2ViBNDOAx5oA7uM-64" value="MenuPage_clean.csv" style="rounded=1;whiteSpace=wrap;html=1;fontSize=10;fillColor=#fff2cc;strokeColor=#d6b656;" vertex="1" parent="1">
          <mxGeometry x="720" y="700" width="120" height="60" as="geometry" />
        </mxCell>
        <mxCell id="wGyRM2ViBNDOAx5oA7uM-65" value="" style="edgeStyle=elbowEdgeStyle;elbow=vertical;endArrow=classic;html=1;curved=0;rounded=1;endSize=8;startSize=8;entryX=0.5;entryY=0;entryDx=0;entryDy=0;exitX=0.5;exitY=1;exitDx=0;exitDy=0;fontSize=10;" edge="1" parent="1">
          <mxGeometry width="50" height="50" relative="1" as="geometry">
            <mxPoint x="310" y="760" as="sourcePoint" />
            <mxPoint x="550" y="840" as="targetPoint" />
            <Array as="points">
              <mxPoint x="510" y="800" />
            </Array>
          </mxGeometry>
        </mxCell>
        <mxCell id="wGyRM2ViBNDOAx5oA7uM-66" value="" style="edgeStyle=elbowEdgeStyle;elbow=vertical;endArrow=classic;html=1;curved=0;rounded=1;endSize=8;startSize=8;entryX=0.5;entryY=0;entryDx=0;entryDy=0;exitX=0.5;exitY=1;exitDx=0;exitDy=0;fontSize=10;" edge="1" parent="1">
          <mxGeometry width="50" height="50" relative="1" as="geometry">
            <mxPoint x="780" y="760" as="sourcePoint" />
            <mxPoint x="550" y="840" as="targetPoint" />
          </mxGeometry>
        </mxCell>
        <mxCell id="wGyRM2ViBNDOAx5oA7uM-67" value="" style="edgeStyle=elbowEdgeStyle;elbow=vertical;endArrow=classic;html=1;curved=0;rounded=1;endSize=8;startSize=8;entryX=0.5;entryY=0;entryDx=0;entryDy=0;exitX=0.5;exitY=1;exitDx=0;exitDy=0;fontSize=10;" edge="1" parent="1">
          <mxGeometry width="50" height="50" relative="1" as="geometry">
            <mxPoint x="620" y="760" as="sourcePoint" />
            <mxPoint x="550" y="840" as="targetPoint" />
          </mxGeometry>
        </mxCell>
        <mxCell id="wGyRM2ViBNDOAx5oA7uM-68" value="/CleanData" style="rounded=1;whiteSpace=wrap;html=1;fontSize=10;fillColor=#d5e8d4;strokeColor=#82b366;" vertex="1" parent="1">
          <mxGeometry x="490" y="840" width="120" height="60" as="geometry" />
        </mxCell>
      </root>
    </mxGraphModel>
  </diagram>
</mxfile>
